<svg width="81" height="21" viewBox="0 0 81 21" fill="none" xmlns="http://www.w3.org/2000/svg">
<path d="M5.14 10.18C9 10.18 10.6 8.12 10.6 5.6C10.6 3.06 9 0.999999 5.14 0.999999H0.66V16H3.44V10.18H5.14ZM3.44 3.5H5.12C6.74 3.5 7.7 4.16 7.7 5.6C7.7 7 6.74 7.68 5.12 7.68H3.44V3.5ZM15.0331 6H12.2931V16H15.0331V10.84C15.0331 8.96 16.2331 8.3 17.6531 8.3C18.0531 8.3 18.4131 8.36 18.7331 8.48V5.9C18.5531 5.86 18.3331 5.84 18.1331 5.84C16.7331 5.84 15.4131 6.86 15.0331 8.9V6ZM19.4461 11.02C19.4461 13.92 21.5061 16.26 24.8461 16.26C28.2061 16.26 30.2261 13.92 30.2261 11.02C30.2261 8.12 28.2061 5.78 24.8461 5.78C21.5061 5.78 19.4461 8.12 19.4461 11.02ZM24.8461 7.86C26.3061 7.86 27.3461 9.04 27.3461 11.02C27.3461 13 26.3061 14.18 24.8461 14.18C23.3861 14.18 22.3461 13 22.3461 11.02C22.3461 9.04 23.3861 7.86 24.8461 7.86ZM33.6336 3.92C34.5936 3.92 35.2736 3.24 35.2736 2.28C35.2736 1.34 34.5936 0.66 33.6336 0.66C32.6736 0.66 32.0136 1.34 32.0136 2.28C32.0136 3.24 32.6736 3.92 33.6336 3.92ZM32.2736 15.8C32.2736 16.98 31.9136 17.38 30.5536 18.04L31.6936 20.26C34.2736 19.1 35.0136 18.42 35.0136 16.04V6H32.2736V15.8ZM42.3642 16.26C43.7642 16.26 45.3642 15.88 46.2842 15V12.76C45.2442 13.74 44.1442 14.18 42.8442 14.18C41.1042 14.18 40.0642 13.12 39.9442 11.4H46.8442C46.9642 7.88 44.9642 5.78 42.1042 5.78C39.3642 5.78 37.0442 7.72 37.0442 11.04C37.0442 14.34 39.3642 16.26 42.3642 16.26ZM42.0842 7.72C43.2242 7.72 43.9442 8.46 44.0242 9.8H40.0042C40.2242 8.5 40.8242 7.72 42.0842 7.72ZM55.0975 13.6C54.5375 13.98 53.9375 14.16 53.4175 14.16C52.5975 14.16 52.0975 13.78 52.0975 12.62V8.08H55.2375V6H52.0975V3.3L47.6375 8V8.08H49.3575V13.04C49.3575 15.52 50.6575 16.26 52.7375 16.26C53.5375 16.26 54.5975 16 55.0975 15.7V13.6ZM56.2039 11.02C56.2039 13.92 58.2639 16.26 61.6039 16.26C64.9639 16.26 66.9839 13.92 66.9839 11.02C66.9839 8.12 64.9639 5.78 61.6039 5.78C58.2639 5.78 56.2039 8.12 56.2039 11.02ZM61.6039 7.86C63.0639 7.86 64.1039 9.04 64.1039 11.02C64.1039 13 63.0639 14.18 61.6039 14.18C60.1439 14.18 59.1039 13 59.1039 11.02C59.1039 9.04 60.1439 7.86 61.6039 7.86Z" fill="#E3E7EE"/>
<path d="M68.4914 10.52C68.4914 9.42667 68.5914 8.36 68.7914 7.32C69.0047 6.28 69.3314 5.28667 69.7714 4.34C70.2114 3.39333 70.7647 2.52 71.4314 1.72H73.8714C73.2714 2.54667 72.7647 3.44 72.3514 4.4C71.9381 5.36 71.6247 6.35333 71.4114 7.38C71.1981 8.40667 71.0914 9.44667 71.0914 10.5C71.0914 11.5267 71.1981 12.5533 71.4114 13.58C71.6247 14.5933 71.9314 15.5667 72.3314 16.5C72.7447 17.4467 73.2514 18.3333 73.8514 19.16H71.4314C70.7647 18.3733 70.2114 17.5133 69.7714 16.58C69.3314 15.66 69.0047 14.6867 68.7914 13.66C68.5914 12.6333 68.4914 11.5867 68.4914 10.52ZM80.4488 10.52C80.4488 11.5867 80.3421 12.6333 80.1288 13.66C79.9288 14.6867 79.6088 15.66 79.1688 16.58C78.7421 17.5133 78.1888 18.3733 77.5088 19.16H75.0888C75.6888 18.3333 76.1888 17.4467 76.5888 16.5C77.0021 15.5667 77.3154 14.5933 77.5288 13.58C77.7421 12.5533 77.8488 11.5267 77.8488 10.5C77.8488 9.44667 77.7421 8.40667 77.5288 7.38C77.3154 6.35333 77.0021 5.36 76.5888 4.4C76.1888 3.44 75.6821 2.54667 75.0688 1.72H77.5088C78.1888 2.52 78.7421 3.39333 79.1688 4.34C79.6088 5.28667 79.9288 6.28 80.1288 7.32C80.3421 8.36 80.4488 9.42667 80.4488 10.52Z" fill="#C7A0F2"/>
</svg>
