<svg width="89" height="19" viewBox="0 0 89 19" fill="none" xmlns="http://www.w3.org/2000/svg">
<path d="M11.672 15.624L0.032 10.488V8.808L11.672 3V5.808L3.656 9.528L11.672 12.816V15.624ZM77.0008 12.816L85.0168 9.528L77.0008 5.808V3L88.6407 8.808V10.488L77.0008 15.624V12.816Z" fill="#C7A0F2"/>
<path d="M13.5744 12.024C13.5744 15.744 16.3584 18.312 20.2704 18.312C21.5184 18.312 22.5744 18.072 23.2944 17.688V15.024C22.5024 15.504 21.5664 15.816 20.5584 15.816C18.6144 15.816 17.0784 14.592 17.0784 12.024C17.0784 9.456 18.6144 8.232 20.5584 8.232C21.5664 8.232 22.5024 8.544 23.2944 9.024V6.36C22.5744 5.976 21.5184 5.736 20.2704 5.736C16.3584 5.736 13.5744 8.304 13.5744 12.024ZM24.8478 12.024C24.8478 15.504 27.3198 18.312 31.3278 18.312C35.3598 18.312 37.7838 15.504 37.7838 12.024C37.7838 8.544 35.3598 5.736 31.3278 5.736C27.3198 5.736 24.8478 8.544 24.8478 12.024ZM31.3278 8.232C33.0798 8.232 34.3278 9.648 34.3278 12.024C34.3278 14.4 33.0798 15.816 31.3278 15.816C29.5758 15.816 28.3278 14.4 28.3278 12.024C28.3278 9.648 29.5758 8.232 31.3278 8.232ZM48.4728 8.544C47.8968 6.84 46.3848 5.712 44.5368 5.712C41.5848 5.712 39.5208 8.376 39.5208 12C39.5208 15.624 41.5848 18.288 44.5368 18.288C46.3848 18.288 47.8968 17.16 48.4728 15.432V18H51.7608V-1.43051e-06H48.4728V8.544ZM43.0248 12C43.0248 9.72 44.1528 8.16 45.9768 8.16C47.3688 8.16 48.4968 9.168 48.4968 10.56V13.44C48.4968 14.832 47.3688 15.84 45.9768 15.84C44.1528 15.84 43.0248 14.28 43.0248 12ZM61.367 9.936C61.007 10.392 60.383 10.704 58.415 11.112C55.775 11.64 54.119 12.696 54.119 14.76C54.119 16.776 55.703 18.264 57.839 18.264C60.071 18.264 61.007 16.8 61.415 15.288V18H64.679V9.912C64.679 6.6 62.567 5.736 59.735 5.736C57.863 5.736 56.231 6.408 55.175 7.224V10.128C56.351 8.88 58.031 8.208 59.351 8.208C60.455 8.208 61.367 8.592 61.367 9.552V9.936ZM61.415 13.2C61.415 15.24 60.311 16.104 59.111 16.104C57.983 16.104 57.239 15.48 57.239 14.472C57.239 13.56 57.911 13.176 58.991 12.816L61.415 11.976V13.2ZM71.0679 6H67.7799V18H71.0679V11.808C71.0679 9.552 72.5079 8.76 74.2119 8.76C74.6919 8.76 75.1239 8.832 75.5079 8.976V5.88C75.2919 5.832 75.0279 5.808 74.7879 5.808C73.1079 5.808 71.5239 7.032 71.0679 9.48V6Z" fill="#E3E7EE"/>
</svg>
