<svg width="111" height="20" viewBox="0 0 111 20" fill="none" xmlns="http://www.w3.org/2000/svg">
<path d="M11.672 16.624L0.032 11.488V9.808L11.672 4V6.808L3.656 10.528L11.672 13.816V16.624ZM98.9383 13.816L106.954 10.528L98.9383 6.808V4L110.578 9.808V11.488L98.9383 16.624V13.816Z" fill="#C7A0F2"/>
<path d="M18.3504 19.312C21.7584 19.312 23.6064 17.08 23.6064 14.008V0.999999H20.2704V13.84C20.2704 15.616 19.4304 16.312 18.3264 16.312C17.1024 16.312 16.3344 15.64 16.2384 13.936H13.0224C13.0944 17.056 14.9424 19.312 18.3504 19.312ZM33.242 10.936C32.882 11.392 32.258 11.704 30.29 12.112C27.65 12.64 25.994 13.696 25.994 15.76C25.994 17.776 27.578 19.264 29.714 19.264C31.946 19.264 32.882 17.8 33.29 16.288V19H36.554V10.912C36.554 7.6 34.442 6.736 31.61 6.736C29.738 6.736 28.106 7.408 27.05 8.224V11.128C28.226 9.88 29.906 9.208 31.226 9.208C32.33 9.208 33.242 9.592 33.242 10.552V10.936ZM33.29 14.2C33.29 16.24 32.186 17.104 30.986 17.104C29.858 17.104 29.114 16.48 29.114 15.472C29.114 14.56 29.786 14.176 30.866 13.816L33.29 12.976V14.2ZM42.9429 7H39.6549V19H42.9429V11.536C42.9429 9.904 43.9029 9.184 45.1509 9.184C46.4469 9.184 47.1669 9.976 47.1669 11.704V19H50.4549V10.84C50.4549 8.128 49.0149 6.736 46.7589 6.736C44.7429 6.736 43.4229 7.888 42.9429 9.592V7ZM59.9373 10.936C59.5773 11.392 58.9533 11.704 56.9853 12.112C54.3453 12.64 52.6893 13.696 52.6893 15.76C52.6893 17.776 54.2733 19.264 56.4093 19.264C58.6413 19.264 59.5773 17.8 59.9853 16.288V19H63.2493V10.912C63.2493 7.6 61.1373 6.736 58.3053 6.736C56.4333 6.736 54.8013 7.408 53.7453 8.224V11.128C54.9213 9.88 56.6013 9.208 57.9213 9.208C59.0253 9.208 59.9373 9.592 59.9373 10.552V10.936ZM59.9853 14.2C59.9853 16.24 58.8813 17.104 57.6813 17.104C56.5533 17.104 55.8093 16.48 55.8093 15.472C55.8093 14.56 56.4813 14.176 57.5613 13.816L59.9853 12.976V14.2ZM67.9582 4.504C69.1102 4.504 69.9262 3.688 69.9262 2.536C69.9262 1.408 69.1102 0.592 67.9582 0.592C66.8062 0.592 66.0142 1.408 66.0142 2.536C66.0142 3.688 66.8062 4.504 67.9582 4.504ZM69.6382 19V7H66.3502V19H69.6382ZM76.1069 7H72.8189V19H76.1069V11.536C76.1069 9.904 77.0669 9.184 78.3149 9.184C79.6109 9.184 80.3309 9.976 80.3309 11.704V19H83.6189V10.84C83.6189 8.128 82.1789 6.736 79.9229 6.736C77.9069 6.736 76.5869 7.888 76.1069 9.592V7ZM93.1014 10.936C92.7414 11.392 92.1174 11.704 90.1494 12.112C87.5094 12.64 85.8534 13.696 85.8534 15.76C85.8534 17.776 87.4374 19.264 89.5734 19.264C91.8054 19.264 92.7414 17.8 93.1494 16.288V19H96.4134V10.912C96.4134 7.6 94.3014 6.736 91.4694 6.736C89.5974 6.736 87.9654 7.408 86.9094 8.224V11.128C88.0854 9.88 89.7654 9.208 91.0854 9.208C92.1894 9.208 93.1014 9.592 93.1014 10.552V10.936ZM93.1494 14.2C93.1494 16.24 92.0454 17.104 90.8454 17.104C89.7174 17.104 88.9734 16.48 88.9734 15.472C88.9734 14.56 89.6454 14.176 90.7254 13.816L93.1494 12.976V14.2Z" fill="#E3E7EE"/>
</svg>
