<svg width="487" height="235" viewBox="0 0 487 235" fill="none" xmlns="http://www.w3.org/2000/svg">
<path d="M42 4.00001C42 1.79087 43.7909 0 46 0H437C439.209 0 441 1.79086 441 4V231C441 233.209 439.209 235 437 235H46C43.7909 235 42 233.209 42 231V4.00001Z" fill="#1C1D22"/>
<path d="M42 4C42 1.79086 43.7909 0 46 0H437C439.209 0 441 1.79086 441 4V22H42V4Z" fill="#131418"/>
<circle cx="60" cy="11" r="2" fill="#292C32"/>
<circle cx="70" cy="11" r="2" fill="#292C32"/>
<circle cx="80" cy="11" r="2" fill="#292C32"/>
<path d="M64.56 99L70.46 84H68.42L62.54 99H64.56ZM70.81 99L76.71 84H74.67L68.79 99H70.81ZM81.2939 99V84H79.0339V99H81.2939ZM86.6561 89H84.4361V99H86.6561V92.7C86.6561 91.14 87.6161 90.44 88.8761 90.44C90.1361 90.44 90.8761 91.2 90.8761 92.84V99H93.0961V92.32C93.0961 89.94 91.8761 88.78 89.8761 88.78C88.2161 88.78 87.0961 89.72 86.6561 91.14V89ZM101.981 96.9C101.401 97.3 100.741 97.52 100.161 97.52C99.3414 97.52 98.7814 97.2 98.7814 95.72V90.72H102.121V89H98.7814V86.32L94.6014 90.64V90.72H96.5614V95.96C96.5614 98.52 97.6414 99.26 99.7414 99.26C100.481 99.26 101.481 98.98 101.981 98.7V96.9ZM108.252 99.26C109.692 99.26 111.212 98.86 112.232 97.92V95.98C111.192 96.98 110.112 97.54 108.672 97.54C106.832 97.54 105.532 96.38 105.452 94.12H112.712C112.752 90.7 110.712 88.78 108.072 88.78C105.412 88.78 103.112 90.74 103.112 94.04C103.112 97.28 105.392 99.26 108.252 99.26ZM108.012 90.4C109.392 90.4 110.232 91.2 110.352 92.78H105.532C105.732 91.34 106.432 90.4 108.012 90.4ZM117.105 89H114.885V99H117.105V93.16C117.105 91.36 118.485 90.94 119.785 90.94C120.165 90.94 120.505 91 120.805 91.1V88.94C120.605 88.9 120.365 88.88 120.145 88.88C118.865 88.88 117.525 89.86 117.105 91.58V89ZM125.68 87.34C125.68 85.86 126.46 85.4 127.48 85.4C128.02 85.4 128.56 85.5 129.06 85.64V83.9C128.46 83.74 127.78 83.66 127.2 83.66C125.12 83.66 123.46 84.74 123.46 87.46V89H121.52V90.72H123.46V99H125.68V90.72H128.84V89H125.68V87.34ZM135.678 92.12C135.378 92.52 134.738 92.82 132.938 93.18C130.818 93.64 129.378 94.54 129.378 96.28C129.378 97.96 130.738 99.24 132.618 99.24C134.478 99.24 135.358 98.06 135.698 96.62V99H137.898V92.1C137.898 89.48 136.118 88.78 133.998 88.78C132.378 88.78 131.138 89.34 130.238 90.02V92.04C131.218 91.02 132.458 90.44 133.738 90.44C134.758 90.44 135.678 90.8 135.678 91.8V92.12ZM135.698 94.84C135.698 96.82 134.578 97.76 133.418 97.76C132.298 97.76 131.598 97.1 131.598 96.08C131.598 95.18 132.238 94.76 133.298 94.4L135.698 93.58V94.84ZM140.007 94.02C140.007 97.14 142.287 99.26 145.347 99.26C146.347 99.26 147.187 99.06 147.787 98.74V96.92C147.147 97.28 146.387 97.54 145.527 97.54C143.787 97.54 142.367 96.38 142.367 94.02C142.367 91.66 143.787 90.5 145.527 90.5C146.387 90.5 147.147 90.76 147.787 91.12V89.3C147.187 88.98 146.347 88.78 145.347 88.78C142.287 88.78 140.007 90.9 140.007 94.02ZM154.287 99.26C155.727 99.26 157.247 98.86 158.267 97.92V95.98C157.227 96.98 156.147 97.54 154.707 97.54C152.867 97.54 151.567 96.38 151.487 94.12H158.747C158.787 90.7 156.747 88.78 154.107 88.78C151.447 88.78 149.147 90.74 149.147 94.04C149.147 97.28 151.427 99.26 154.287 99.26ZM154.047 90.4C155.427 90.4 156.267 91.2 156.387 92.78H151.567C151.767 91.34 152.467 90.4 154.047 90.4ZM167.46 91.62C167.18 89.7 165.8 88.78 163.94 88.78C162.08 88.78 160.46 89.86 160.46 91.58C160.46 93.14 161.52 94.14 163.16 94.66L164.02 94.92C165.04 95.24 165.82 95.58 165.82 96.44C165.82 97.2 165.08 97.64 164.18 97.64C163.02 97.64 162.34 97.04 162.16 95.84H160.16C160.32 98.02 161.92 99.26 164.18 99.26C166.34 99.26 167.88 98.06 167.88 96.14C167.88 94.44 166.42 93.58 164.84 93.1L163.96 92.84C163.06 92.56 162.5 92.14 162.5 91.48C162.5 90.72 163.18 90.36 163.88 90.36C164.7 90.36 165.28 90.78 165.5 91.62H167.46ZM174.108 94.02C174.108 97.14 176.388 99.26 179.448 99.26C180.448 99.26 181.288 99.06 181.888 98.74V96.92C181.248 97.28 180.488 97.54 179.628 97.54C177.888 97.54 176.468 96.38 176.468 94.02C176.468 91.66 177.888 90.5 179.628 90.5C180.488 90.5 181.248 90.76 181.888 91.12V89.3C181.288 88.98 180.448 88.78 179.448 88.78C176.388 88.78 174.108 90.9 174.108 94.02ZM183.229 94.02C183.229 96.9 185.309 99.26 188.549 99.26C191.809 99.26 193.889 96.9 193.889 94.02C193.889 91.14 191.809 88.78 188.549 88.78C185.309 88.78 183.229 91.14 183.229 94.02ZM188.549 90.5C190.309 90.5 191.549 91.88 191.549 94.02C191.549 96.16 190.309 97.54 188.549 97.54C186.809 97.54 185.549 96.16 185.549 94.02C185.549 91.88 186.809 90.5 188.549 90.5ZM204.536 91.24C204.216 89.6 203.096 88.78 201.496 88.78C199.876 88.78 198.756 89.72 198.316 91.14V89H196.096V99H198.316V92.7C198.316 91.14 199.276 90.44 200.476 90.44C201.676 90.44 202.436 91.2 202.436 92.84V99H204.656V92.7C204.656 91.16 205.616 90.44 206.816 90.44C208.016 90.44 208.756 91.2 208.756 92.84V99H210.976V92.32C210.976 89.94 209.756 88.78 207.816 88.78C206.216 88.78 204.976 89.76 204.536 91.24ZM224.779 99H226.999V89H224.779V95.32C224.779 96.88 223.819 97.6 222.559 97.6C221.359 97.6 220.599 96.82 220.599 95.18V89H218.379V95.7C218.379 98.08 219.619 99.24 221.559 99.24C223.219 99.24 224.339 98.32 224.779 96.88V99ZM238.325 91.24C238.005 89.6 236.885 88.78 235.285 88.78C233.665 88.78 232.545 89.72 232.105 91.14V89H229.885V99H232.105V92.7C232.105 91.14 233.065 90.44 234.265 90.44C235.465 90.44 236.225 91.2 236.225 92.84V99H238.445V92.7C238.445 91.16 239.405 90.44 240.605 90.44C241.805 90.44 242.545 91.2 242.545 92.84V99H244.765V92.32C244.765 89.94 243.545 88.78 241.605 88.78C240.005 88.78 238.765 89.76 238.325 91.24ZM253.042 92.12C252.742 92.52 252.102 92.82 250.302 93.18C248.182 93.64 246.742 94.54 246.742 96.28C246.742 97.96 248.102 99.24 249.982 99.24C251.842 99.24 252.722 98.06 253.062 96.62V99H255.262V92.1C255.262 89.48 253.482 88.78 251.362 88.78C249.742 88.78 248.502 89.34 247.602 90.02V92.04C248.582 91.02 249.822 90.44 251.102 90.44C252.122 90.44 253.042 90.8 253.042 91.8V92.12ZM253.062 94.84C253.062 96.82 251.942 97.76 250.782 97.76C249.662 97.76 248.962 97.1 248.962 96.08C248.962 95.18 249.602 94.76 250.662 94.4L253.062 93.58V94.84ZM264.996 96.94C265.456 98.18 266.716 99.26 268.376 99.26C270.896 99.26 272.736 97.04 272.736 94.02C272.736 91 270.896 88.78 268.376 88.78C266.716 88.78 265.456 89.86 264.996 91.1V84H262.776V99H264.996V96.94ZM270.336 94.02C270.336 96.16 269.216 97.6 267.416 97.6C266.156 97.6 264.996 96.74 264.996 95.48V92.56C264.996 91.3 266.156 90.44 267.416 90.44C269.216 90.44 270.336 91.88 270.336 94.02ZM274.283 94.02C274.283 96.9 276.363 99.26 279.603 99.26C282.863 99.26 284.943 96.9 284.943 94.02C284.943 91.14 282.863 88.78 279.603 88.78C276.363 88.78 274.283 91.14 274.283 94.02ZM279.603 90.5C281.363 90.5 282.603 91.88 282.603 94.02C282.603 96.16 281.363 97.54 279.603 97.54C277.863 97.54 276.603 96.16 276.603 94.02C276.603 91.88 277.863 90.5 279.603 90.5ZM292.631 92.12C292.331 92.52 291.691 92.82 289.891 93.18C287.771 93.64 286.331 94.54 286.331 96.28C286.331 97.96 287.691 99.24 289.571 99.24C291.431 99.24 292.311 98.06 292.651 96.62V99H294.851V92.1C294.851 89.48 293.071 88.78 290.951 88.78C289.331 88.78 288.091 89.34 287.191 90.02V92.04C288.171 91.02 289.411 90.44 290.691 90.44C291.711 90.44 292.631 90.8 292.631 91.8V92.12ZM292.651 94.84C292.651 96.82 291.531 97.76 290.371 97.76C289.251 97.76 288.551 97.1 288.551 96.08C288.551 95.18 289.191 94.76 290.251 94.4L292.651 93.58V94.84ZM67.92 125.26C69.36 125.26 70.88 124.86 71.9 123.92V121.98C70.86 122.98 69.78 123.54 68.34 123.54C66.5 123.54 65.2 122.38 65.12 120.12H72.38C72.42 116.7 70.38 114.78 67.74 114.78C65.08 114.78 62.78 116.74 62.78 120.04C62.78 123.28 65.06 125.26 67.92 125.26ZM67.68 116.4C69.06 116.4 69.9 117.2 70.02 118.78H65.2C65.4 117.34 66.1 116.4 67.68 116.4ZM75.0803 125L77.9203 121.38L80.6603 125H83.2403L79.2203 119.7L82.9203 115H80.7403L78.1603 118.3L75.6603 115H73.0803L76.8403 119.96L72.9003 125H75.0803ZM86.9295 122.94C87.3895 124.18 88.6495 125.26 90.3095 125.26C92.8295 125.26 94.6695 123.04 94.6695 120.02C94.6695 117 92.8295 114.78 90.3095 114.78C88.6495 114.78 87.3895 115.86 86.9295 117.1V115H84.7095V129.08H86.9295V122.94ZM92.2695 120.02C92.2695 122.16 91.1495 123.6 89.3495 123.6C88.0895 123.6 86.9295 122.74 86.9295 121.48V118.56C86.9295 117.3 88.0895 116.44 89.3495 116.44C91.1495 116.44 92.2695 117.88 92.2695 120.02ZM101.377 125.26C102.817 125.26 104.337 124.86 105.357 123.92V121.98C104.317 122.98 103.237 123.54 101.797 123.54C99.957 123.54 98.657 122.38 98.577 120.12H105.837C105.877 116.7 103.837 114.78 101.197 114.78C98.537 114.78 96.237 116.74 96.237 120.04C96.237 123.28 98.517 125.26 101.377 125.26ZM101.137 116.4C102.517 116.4 103.357 117.2 103.477 118.78H98.657C98.857 117.34 99.557 116.4 101.137 116.4ZM110.23 115H108.01V125H110.23V119.16C110.23 117.36 111.61 116.94 112.91 116.94C113.29 116.94 113.63 117 113.93 117.1V114.94C113.73 114.9 113.49 114.88 113.27 114.88C111.99 114.88 110.65 115.86 110.23 117.58V115ZM116.805 112.46C117.605 112.46 118.205 111.88 118.205 111.06C118.205 110.26 117.605 109.66 116.805 109.66C115.985 109.66 115.405 110.26 115.405 111.06C115.405 111.88 115.985 112.46 116.805 112.46ZM117.945 125V115H115.725V125H117.945ZM125.303 125.26C126.743 125.26 128.263 124.86 129.283 123.92V121.98C128.243 122.98 127.163 123.54 125.723 123.54C123.883 123.54 122.583 122.38 122.503 120.12H129.763C129.803 116.7 127.763 114.78 125.123 114.78C122.463 114.78 120.163 116.74 120.163 120.04C120.163 123.28 122.443 125.26 125.303 125.26ZM125.063 116.4C126.443 116.4 127.283 117.2 127.403 118.78H122.583C122.783 117.34 123.483 116.4 125.063 116.4ZM134.156 115H131.936V125H134.156V118.7C134.156 117.14 135.116 116.44 136.376 116.44C137.636 116.44 138.376 117.2 138.376 118.84V125H140.596V118.32C140.596 115.94 139.376 114.78 137.376 114.78C135.716 114.78 134.596 115.72 134.156 117.14V115ZM142.721 120.02C142.721 123.14 145.001 125.26 148.061 125.26C149.061 125.26 149.901 125.06 150.501 124.74V122.92C149.861 123.28 149.101 123.54 148.241 123.54C146.501 123.54 145.081 122.38 145.081 120.02C145.081 117.66 146.501 116.5 148.241 116.5C149.101 116.5 149.861 116.76 150.501 117.12V115.3C149.901 114.98 149.061 114.78 148.061 114.78C145.001 114.78 142.721 116.9 142.721 120.02ZM153.758 112.46C154.558 112.46 155.158 111.88 155.158 111.06C155.158 110.26 154.558 109.66 153.758 109.66C152.938 109.66 152.358 110.26 152.358 111.06C152.358 111.88 152.938 112.46 153.758 112.46ZM154.898 125V115H152.678V125H154.898ZM163.276 118.12C162.976 118.52 162.336 118.82 160.536 119.18C158.416 119.64 156.976 120.54 156.976 122.28C156.976 123.96 158.336 125.24 160.216 125.24C162.076 125.24 162.956 124.06 163.296 122.62V125H165.496V118.1C165.496 115.48 163.716 114.78 161.596 114.78C159.976 114.78 158.736 115.34 157.836 116.02V118.04C158.816 117.02 160.056 116.44 161.336 116.44C162.356 116.44 163.276 116.8 163.276 117.8V118.12ZM163.296 120.84C163.296 122.82 162.176 123.76 161.016 123.76C159.896 123.76 159.196 123.1 159.196 122.08C159.196 121.18 159.836 120.76 160.896 120.4L163.296 119.58V120.84ZM175.23 122.94C175.69 124.18 176.95 125.26 178.61 125.26C181.13 125.26 182.97 123.04 182.97 120.02C182.97 117 181.13 114.78 178.61 114.78C176.95 114.78 175.69 115.86 175.23 117.1V115H173.01V129.08H175.23V122.94ZM180.57 120.02C180.57 122.16 179.45 123.6 177.65 123.6C176.39 123.6 175.23 122.74 175.23 121.48V118.56C175.23 117.3 176.39 116.44 177.65 116.44C179.45 116.44 180.57 117.88 180.57 120.02ZM190.698 118.12C190.398 118.52 189.758 118.82 187.958 119.18C185.838 119.64 184.398 120.54 184.398 122.28C184.398 123.96 185.758 125.24 187.638 125.24C189.498 125.24 190.378 124.06 190.718 122.62V125H192.918V118.1C192.918 115.48 191.138 114.78 189.018 114.78C187.398 114.78 186.158 115.34 185.258 116.02V118.04C186.238 117.02 187.478 116.44 188.758 116.44C189.778 116.44 190.698 116.8 190.698 117.8V118.12ZM190.718 120.84C190.718 122.82 189.598 123.76 188.438 123.76C187.318 123.76 186.618 123.1 186.618 122.08C186.618 121.18 187.258 120.76 188.318 120.4L190.718 119.58V120.84ZM197.906 115H195.686V125H197.906V119.16C197.906 117.36 199.286 116.94 200.586 116.94C200.966 116.94 201.306 117 201.606 117.1V114.94C201.406 114.9 201.166 114.88 200.946 114.88C199.666 114.88 198.326 115.86 197.906 117.58V115ZM208.608 118.12C208.308 118.52 207.668 118.82 205.868 119.18C203.748 119.64 202.308 120.54 202.308 122.28C202.308 123.96 203.668 125.24 205.548 125.24C207.408 125.24 208.288 124.06 208.628 122.62V125H210.828V118.1C210.828 115.48 209.048 114.78 206.928 114.78C205.308 114.78 204.068 115.34 203.168 116.02V118.04C204.148 117.02 205.388 116.44 206.668 116.44C207.688 116.44 208.608 116.8 208.608 117.8V118.12ZM208.628 120.84C208.628 122.82 207.508 123.76 206.348 123.76C205.228 123.76 204.528 123.1 204.528 122.08C204.528 121.18 205.168 120.76 206.228 120.4L208.628 119.58V120.84ZM217.662 120.02C217.662 122.9 219.742 125.26 222.982 125.26C226.242 125.26 228.322 122.9 228.322 120.02C228.322 117.14 226.242 114.78 222.982 114.78C219.742 114.78 217.662 117.14 217.662 120.02ZM222.982 116.5C224.742 116.5 225.982 117.88 225.982 120.02C225.982 122.16 224.742 123.54 222.982 123.54C221.242 123.54 219.982 122.16 219.982 120.02C219.982 117.88 221.242 116.5 222.982 116.5ZM237.07 117.62C236.79 115.7 235.41 114.78 233.55 114.78C231.69 114.78 230.07 115.86 230.07 117.58C230.07 119.14 231.13 120.14 232.77 120.66L233.63 120.92C234.65 121.24 235.43 121.58 235.43 122.44C235.43 123.2 234.69 123.64 233.79 123.64C232.63 123.64 231.95 123.04 231.77 121.84H229.77C229.93 124.02 231.53 125.26 233.79 125.26C235.95 125.26 237.49 124.06 237.49 122.14C237.49 120.44 236.03 119.58 234.45 119.1L233.57 118.84C232.67 118.56 232.11 118.14 232.11 117.48C232.11 116.72 232.79 116.36 233.49 116.36C234.31 116.36 234.89 116.78 235.11 117.62H237.07ZM250.658 125H252.878V115H250.658V121.32C250.658 122.88 249.698 123.6 248.438 123.6C247.238 123.6 246.478 122.82 246.478 121.18V115H244.257V121.7C244.257 124.08 245.498 125.24 247.438 125.24C249.098 125.24 250.218 124.32 250.658 122.88V125ZM262.304 117.62C262.024 115.7 260.644 114.78 258.784 114.78C256.924 114.78 255.304 115.86 255.304 117.58C255.304 119.14 256.364 120.14 258.004 120.66L258.864 120.92C259.884 121.24 260.664 121.58 260.664 122.44C260.664 123.2 259.924 123.64 259.024 123.64C257.864 123.64 257.184 123.04 257.004 121.84H255.004C255.164 124.02 256.764 125.26 259.024 125.26C261.184 125.26 262.724 124.06 262.724 122.14C262.724 120.44 261.264 119.58 259.684 119.1L258.804 118.84C257.904 118.56 257.344 118.14 257.344 117.48C257.344 116.72 258.024 116.36 258.724 116.36C259.544 116.36 260.124 116.78 260.344 117.62H262.304ZM271.146 125H273.366V115H271.146V121.32C271.146 122.88 270.186 123.6 268.926 123.6C267.726 123.6 266.966 122.82 266.966 121.18V115H264.746V121.7C264.746 124.08 265.986 125.24 267.926 125.24C269.586 125.24 270.706 124.32 271.146 122.88V125ZM281.753 118.12C281.453 118.52 280.813 118.82 279.013 119.18C276.893 119.64 275.453 120.54 275.453 122.28C275.453 123.96 276.813 125.24 278.693 125.24C280.553 125.24 281.433 124.06 281.773 122.62V125H283.973V118.1C283.973 115.48 282.193 114.78 280.073 114.78C278.453 114.78 277.213 115.34 276.313 116.02V118.04C277.293 117.02 278.533 116.44 279.812 116.44C280.833 116.44 281.753 116.8 281.753 117.8V118.12ZM281.773 120.84C281.773 122.82 280.653 123.76 279.493 123.76C278.373 123.76 277.673 123.1 277.673 122.08C277.673 121.18 278.313 120.76 279.373 120.4L281.773 119.58V120.84ZM288.961 115H286.741V125H288.961V119.16C288.961 117.36 290.341 116.94 291.641 116.94C292.021 116.94 292.361 117 292.661 117.1V114.94C292.461 114.9 292.221 114.88 292.001 114.88C290.721 114.88 289.381 115.86 288.961 117.58V115ZM295.536 112.46C296.336 112.46 296.936 111.88 296.936 111.06C296.936 110.26 296.336 109.66 295.536 109.66C294.716 109.66 294.136 110.26 294.136 111.06C294.136 111.88 294.716 112.46 295.536 112.46ZM296.676 125V115H294.456V125H296.676ZM298.873 120.02C298.873 122.9 300.953 125.26 304.193 125.26C307.453 125.26 309.533 122.9 309.533 120.02C309.533 117.14 307.453 114.78 304.193 114.78C300.953 114.78 298.873 117.14 298.873 120.02ZM304.193 116.5C305.953 116.5 307.193 117.88 307.193 120.02C307.193 122.16 305.953 123.54 304.193 123.54C302.453 123.54 301.193 122.16 301.193 120.02C301.193 117.88 302.453 116.5 304.193 116.5ZM318.281 117.62C318.001 115.7 316.621 114.78 314.761 114.78C312.901 114.78 311.281 115.86 311.281 117.58C311.281 119.14 312.341 120.14 313.981 120.66L314.841 120.92C315.861 121.24 316.641 121.58 316.641 122.44C316.641 123.2 315.901 123.64 315.001 123.64C313.841 123.64 313.161 123.04 312.981 121.84H310.981C311.141 124.02 312.741 125.26 315.001 125.26C317.161 125.26 318.701 124.06 318.701 122.14C318.701 120.44 317.241 119.58 315.661 119.1L314.781 118.84C313.881 118.56 313.321 118.14 313.321 117.48C313.321 116.72 314.001 116.36 314.701 116.36C315.521 116.36 316.101 116.78 316.321 117.62H318.281Z" fill="#303136"/>
<path d="M87.04 160V145H84.78V160H87.04ZM92.4022 150H90.1822V160H92.4022V153.7C92.4022 152.14 93.3622 151.44 94.6222 151.44C95.8822 151.44 96.6222 152.2 96.6222 153.84V160H98.8422V153.32C98.8422 150.94 97.6222 149.78 95.6222 149.78C93.9622 149.78 92.8422 150.72 92.4022 152.14V150ZM107.728 157.9C107.148 158.3 106.488 158.52 105.908 158.52C105.088 158.52 104.528 158.2 104.528 156.72V151.72H107.868V150H104.528V147.32L100.348 151.64V151.72H102.308V156.96C102.308 159.52 103.388 160.26 105.488 160.26C106.228 160.26 107.228 159.98 107.728 159.7V157.9ZM113.998 160.26C115.438 160.26 116.958 159.86 117.978 158.92V156.98C116.938 157.98 115.858 158.54 114.418 158.54C112.578 158.54 111.278 157.38 111.198 155.12H118.458C118.498 151.7 116.458 149.78 113.818 149.78C111.158 149.78 108.858 151.74 108.858 155.04C108.858 158.28 111.138 160.26 113.998 160.26ZM113.758 151.4C115.138 151.4 115.978 152.2 116.098 153.78H111.278C111.478 152.34 112.178 151.4 113.758 151.4ZM122.851 150H120.631V160H122.851V154.16C122.851 152.36 124.231 151.94 125.531 151.94C125.911 151.94 126.251 152 126.551 152.1V149.94C126.351 149.9 126.111 149.88 125.891 149.88C124.611 149.88 123.271 150.86 122.851 152.58V150ZM131.426 148.34C131.426 146.86 132.206 146.4 133.226 146.4C133.766 146.4 134.306 146.5 134.806 146.64V144.9C134.206 144.74 133.526 144.66 132.946 144.66C130.866 144.66 129.206 145.74 129.206 148.46V150H127.266V151.72H129.206V160H131.426V151.72H134.586V150H131.426V148.34ZM141.424 153.12C141.124 153.52 140.484 153.82 138.684 154.18C136.564 154.64 135.124 155.54 135.124 157.28C135.124 158.96 136.484 160.24 138.364 160.24C140.224 160.24 141.104 159.06 141.444 157.62V160H143.644V153.1C143.644 150.48 141.864 149.78 139.744 149.78C138.124 149.78 136.884 150.34 135.984 151.02V153.04C136.964 152.02 138.204 151.44 139.484 151.44C140.504 151.44 141.424 151.8 141.424 152.8V153.12ZM141.444 155.84C141.444 157.82 140.324 158.76 139.164 158.76C138.044 158.76 137.344 158.1 137.344 157.08C137.344 156.18 137.984 155.76 139.044 155.4L141.444 154.58V155.84ZM145.753 155.02C145.753 158.14 148.033 160.26 151.093 160.26C152.093 160.26 152.933 160.06 153.533 159.74V157.92C152.893 158.28 152.133 158.54 151.273 158.54C149.533 158.54 148.113 157.38 148.113 155.02C148.113 152.66 149.533 151.5 151.273 151.5C152.133 151.5 152.893 151.76 153.533 152.12V150.3C152.933 149.98 152.093 149.78 151.093 149.78C148.033 149.78 145.753 151.9 145.753 155.02ZM160.033 160.26C161.473 160.26 162.993 159.86 164.013 158.92V156.98C162.973 157.98 161.893 158.54 160.453 158.54C158.613 158.54 157.313 157.38 157.233 155.12H164.493C164.533 151.7 162.493 149.78 159.853 149.78C157.193 149.78 154.893 151.74 154.893 155.04C154.893 158.28 157.173 160.26 160.033 160.26ZM159.793 151.4C161.173 151.4 162.013 152.2 162.133 153.78H157.313C157.513 152.34 158.213 151.4 159.793 151.4ZM170.773 154.52C170.773 153.427 170.873 152.36 171.073 151.32C171.286 150.28 171.613 149.287 172.053 148.34C172.493 147.393 173.046 146.52 173.713 145.72H175.373C174.759 146.547 174.239 147.44 173.813 148.4C173.399 149.36 173.086 150.353 172.873 151.38C172.659 152.407 172.553 153.447 172.553 154.5C172.553 155.527 172.659 156.547 172.873 157.56C173.086 158.573 173.399 159.547 173.813 160.48C174.226 161.427 174.739 162.32 175.353 163.16H173.713C173.046 162.373 172.493 161.513 172.053 160.58C171.613 159.66 171.286 158.687 171.073 157.66C170.873 156.633 170.773 155.587 170.773 154.52ZM181.169 154.52C181.169 155.587 181.062 156.633 180.849 157.66C180.649 158.687 180.329 159.66 179.889 160.58C179.462 161.513 178.909 162.373 178.229 163.16H176.589C177.202 162.32 177.715 161.427 178.129 160.48C178.542 159.547 178.855 158.573 179.069 157.56C179.282 156.547 179.389 155.527 179.389 154.5C179.389 153.447 179.282 152.407 179.069 151.38C178.855 150.353 178.542 149.36 178.129 148.4C177.715 147.44 177.195 146.547 176.569 145.72H178.229C178.909 146.52 179.462 147.393 179.889 148.34C180.329 149.287 180.649 150.28 180.849 151.32C181.062 152.36 181.169 153.427 181.169 154.52ZM193.671 163.16C192.858 163.147 192.151 163.027 191.551 162.8C190.964 162.573 190.511 162.22 190.191 161.74C189.871 161.273 189.711 160.687 189.711 159.98V157.04C189.711 156.587 189.618 156.227 189.431 155.96C189.244 155.68 188.971 155.48 188.611 155.36C188.251 155.227 187.804 155.16 187.271 155.16V153.7C187.804 153.687 188.251 153.62 188.611 153.5C188.971 153.38 189.244 153.187 189.431 152.92C189.618 152.64 189.711 152.28 189.711 151.84V148.88C189.711 148.347 189.804 147.887 189.991 147.5C190.191 147.1 190.464 146.773 190.811 146.52C191.171 146.253 191.591 146.053 192.071 145.92C192.551 145.787 193.084 145.72 193.671 145.72V147.16C193.218 147.173 192.824 147.247 192.491 147.38C192.158 147.513 191.898 147.713 191.711 147.98C191.538 148.247 191.451 148.6 191.451 149.04V151.92C191.451 152.6 191.271 153.147 190.911 153.56C190.551 153.96 190.004 154.227 189.271 154.36V154.48C190.018 154.613 190.564 154.887 190.911 155.3C191.271 155.7 191.451 156.24 191.451 156.92V159.86C191.451 160.287 191.538 160.633 191.711 160.9C191.884 161.18 192.138 161.38 192.471 161.5C192.804 161.633 193.204 161.707 193.671 161.72V163.16ZM83.64 213.72C84.1067 213.707 84.5 213.633 84.82 213.5C85.1533 213.367 85.4067 213.16 85.58 212.88C85.7667 212.613 85.86 212.267 85.86 211.84V208.94C85.86 208.26 86.04 207.72 86.4 207.32C86.76 206.907 87.3067 206.633 88.04 206.5V206.38C87.3067 206.247 86.76 205.98 86.4 205.58C86.04 205.167 85.86 204.62 85.86 203.94V201.02C85.86 200.58 85.7733 200.227 85.6 199.96C85.4267 199.693 85.1733 199.493 84.84 199.36C84.52 199.227 84.12 199.16 83.64 199.16V197.72C84.2533 197.72 84.8 197.787 85.28 197.92C85.7733 198.053 86.1933 198.253 86.54 198.52C86.8867 198.773 87.1467 199.1 87.32 199.5C87.5067 199.9 87.6 200.367 87.6 200.9V203.82C87.6 204.273 87.6933 204.64 87.88 204.92C88.0667 205.187 88.34 205.387 88.7 205.52C89.0733 205.64 89.52 205.7 90.04 205.7V207.16C89.52 207.16 89.0733 207.227 88.7 207.36C88.34 207.48 88.0667 207.673 87.88 207.94C87.6933 208.207 87.6 208.567 87.6 209.02V212C87.6 212.707 87.4333 213.293 87.1 213.76C86.7667 214.227 86.3 214.573 85.7 214.8C85.1133 215.04 84.4267 215.16 83.64 215.16V213.72Z" fill="#E3E7EE"/>
<path d="M406.672 138.624L395.032 133.488V131.808L406.672 126V128.808L398.656 132.528L406.672 135.816V138.624ZM472.001 135.816L480.017 132.528L472.001 128.808V126L483.641 131.808V133.488L472.001 138.624V135.816Z" fill="#C7A0F2"/>
<path d="M408.574 135.024C408.574 138.744 411.358 141.312 415.27 141.312C416.518 141.312 417.574 141.072 418.294 140.688V138.024C417.502 138.504 416.566 138.816 415.558 138.816C413.614 138.816 412.078 137.592 412.078 135.024C412.078 132.456 413.614 131.232 415.558 131.232C416.566 131.232 417.502 131.544 418.294 132.024V129.36C417.574 128.976 416.518 128.736 415.27 128.736C411.358 128.736 408.574 131.304 408.574 135.024ZM419.848 135.024C419.848 138.504 422.32 141.312 426.328 141.312C430.36 141.312 432.784 138.504 432.784 135.024C432.784 131.544 430.36 128.736 426.328 128.736C422.32 128.736 419.848 131.544 419.848 135.024ZM426.328 131.232C428.08 131.232 429.328 132.648 429.328 135.024C429.328 137.4 428.08 138.816 426.328 138.816C424.576 138.816 423.328 137.4 423.328 135.024C423.328 132.648 424.576 131.232 426.328 131.232ZM443.473 131.544C442.897 129.84 441.385 128.712 439.537 128.712C436.585 128.712 434.521 131.376 434.521 135C434.521 138.624 436.585 141.288 439.537 141.288C441.385 141.288 442.897 140.16 443.473 138.432V141H446.761V123H443.473V131.544ZM438.025 135C438.025 132.72 439.153 131.16 440.977 131.16C442.369 131.16 443.497 132.168 443.497 133.56V136.44C443.497 137.832 442.369 138.84 440.977 138.84C439.153 138.84 438.025 137.28 438.025 135ZM456.367 132.936C456.007 133.392 455.383 133.704 453.415 134.112C450.775 134.64 449.119 135.696 449.119 137.76C449.119 139.776 450.703 141.264 452.839 141.264C455.071 141.264 456.007 139.8 456.415 138.288V141H459.679V132.912C459.679 129.6 457.567 128.736 454.735 128.736C452.863 128.736 451.231 129.408 450.175 130.224V133.128C451.351 131.88 453.031 131.208 454.351 131.208C455.455 131.208 456.367 131.592 456.367 132.552V132.936ZM456.415 136.2C456.415 138.24 455.311 139.104 454.111 139.104C452.983 139.104 452.239 138.48 452.239 137.472C452.239 136.56 452.911 136.176 453.991 135.816L456.415 134.976V136.2ZM466.068 129H462.78V141H466.068V134.808C466.068 132.552 467.508 131.76 469.212 131.76C469.692 131.76 470.124 131.832 470.508 131.976V128.88C470.292 128.832 470.028 128.808 469.788 128.808C468.108 128.808 466.524 130.032 466.068 132.48V129Z" fill="#E3E7EE"/>
<path d="M6.14 53.18C10 53.18 11.6 51.12 11.6 48.6C11.6 46.06 10 44 6.14 44H1.66V59H4.44V53.18H6.14ZM4.44 46.5H6.12C7.74 46.5 8.7 47.16 8.7 48.6C8.7 50 7.74 50.68 6.12 50.68H4.44V46.5ZM16.0331 49H13.2931V59H16.0331V53.84C16.0331 51.96 17.2331 51.3 18.6531 51.3C19.0531 51.3 19.4131 51.36 19.7331 51.48V48.9C19.5531 48.86 19.3331 48.84 19.1331 48.84C17.7331 48.84 16.4131 49.86 16.0331 51.9V49ZM20.4461 54.02C20.4461 56.92 22.5061 59.26 25.8461 59.26C29.2061 59.26 31.2261 56.92 31.2261 54.02C31.2261 51.12 29.2061 48.78 25.8461 48.78C22.5061 48.78 20.4461 51.12 20.4461 54.02ZM25.8461 50.86C27.3061 50.86 28.3461 52.04 28.3461 54.02C28.3461 56 27.3061 57.18 25.8461 57.18C24.3861 57.18 23.3461 56 23.3461 54.02C23.3461 52.04 24.3861 50.86 25.8461 50.86ZM34.6336 46.92C35.5936 46.92 36.2736 46.24 36.2736 45.28C36.2736 44.34 35.5936 43.66 34.6336 43.66C33.6736 43.66 33.0136 44.34 33.0136 45.28C33.0136 46.24 33.6736 46.92 34.6336 46.92ZM33.2736 58.8C33.2736 59.98 32.9136 60.38 31.5536 61.04L32.6936 63.26C35.2736 62.1 36.0136 61.42 36.0136 59.04V49H33.2736V58.8ZM43.3642 59.26C44.7642 59.26 46.3642 58.88 47.2842 58V55.76C46.2442 56.74 45.1442 57.18 43.8442 57.18C42.1042 57.18 41.0642 56.12 40.9442 54.4H47.8442C47.9642 50.88 45.9642 48.78 43.1042 48.78C40.3642 48.78 38.0442 50.72 38.0442 54.04C38.0442 57.34 40.3642 59.26 43.3642 59.26ZM43.0842 50.72C44.2242 50.72 44.9442 51.46 45.0242 52.8H41.0042C41.2242 51.5 41.8242 50.72 43.0842 50.72ZM56.0975 56.6C55.5375 56.98 54.9375 57.16 54.4175 57.16C53.5975 57.16 53.0975 56.78 53.0975 55.62V51.08H56.2375V49H53.0975V46.3L48.6375 51V51.08H50.3575V56.04C50.3575 58.52 51.6575 59.26 53.7375 59.26C54.5375 59.26 55.5975 59 56.0975 58.7V56.6ZM57.2039 54.02C57.2039 56.92 59.2639 59.26 62.6039 59.26C65.9639 59.26 67.9839 56.92 67.9839 54.02C67.9839 51.12 65.9639 48.78 62.6039 48.78C59.2639 48.78 57.2039 51.12 57.2039 54.02ZM62.6039 50.86C64.0639 50.86 65.1039 52.04 65.1039 54.02C65.1039 56 64.0639 57.18 62.6039 57.18C61.1439 57.18 60.1039 56 60.1039 54.02C60.1039 52.04 61.1439 50.86 62.6039 50.86Z" fill="#E3E7EE"/>
<path d="M69.4914 53.52C69.4914 52.4267 69.5914 51.36 69.7914 50.32C70.0047 49.28 70.3314 48.2867 70.7714 47.34C71.2114 46.3933 71.7647 45.52 72.4314 44.72H74.8714C74.2714 45.5467 73.7647 46.44 73.3514 47.4C72.9381 48.36 72.6247 49.3533 72.4114 50.38C72.1981 51.4067 72.0914 52.4467 72.0914 53.5C72.0914 54.5267 72.1981 55.5533 72.4114 56.58C72.6247 57.5933 72.9314 58.5667 73.3314 59.5C73.7447 60.4467 74.2514 61.3333 74.8514 62.16H72.4314C71.7647 61.3733 71.2114 60.5133 70.7714 59.58C70.3314 58.66 70.0047 57.6867 69.7914 56.66C69.5914 55.6333 69.4914 54.5867 69.4914 53.52ZM81.4488 53.52C81.4488 54.5867 81.3421 55.6333 81.1288 56.66C80.9288 57.6867 80.6088 58.66 80.1688 59.58C79.7421 60.5133 79.1888 61.3733 78.5088 62.16H76.0888C76.6888 61.3333 77.1888 60.4467 77.5888 59.5C78.0021 58.5667 78.3154 57.5933 78.5288 56.58C78.7421 55.5533 78.8488 54.5267 78.8488 53.5C78.8488 52.4467 78.7421 51.4067 78.5288 50.38C78.3154 49.3533 78.0021 48.36 77.5888 47.4C77.1888 46.44 76.6821 45.5467 76.0688 44.72H78.5088C79.1888 45.52 79.7421 46.3933 80.1688 47.34C80.6088 48.2867 80.9288 49.28 81.1288 50.32C81.3421 51.36 81.4488 52.4267 81.4488 53.52Z" fill="#C7A0F2"/>
</svg>
