<svg width="534" height="344" viewBox="0 0 534 344" fill="none" xmlns="http://www.w3.org/2000/svg">
<rect width="399" height="235" rx="4" fill="#202125"/>
<rect x="280" width="119" height="235" rx="4" fill="#303136"/>
<rect x="26.5" y="38.5" width="62" height="60" rx="3.5" fill="#303136" stroke="#C7A0F2"/>
<rect width="27.8366" height="2.57746" rx="1.28873" transform="matrix(1 0 0 -1 37.5986 66.3521)" fill="#C7A0F2"/>
<rect width="39.4352" height="2.57746" rx="1.28873" transform="matrix(1 0 0 -1 37.5986 74.0845)" fill="#C7A0F2"/>
<rect width="138" height="3" rx="1.5" transform="matrix(1 0 0 -1 116 70)" fill="#79C0FF"/>
<rect width="133" height="1" transform="matrix(1 0 0 -1 26 121)" fill="#303136"/>
<rect width="133" height="1" transform="matrix(1 0 0 -1 26 134)" fill="#303136"/>
<rect width="133" height="1" transform="matrix(1 0 0 -1 26 147)" fill="#303136"/>
<rect width="133" height="1" transform="matrix(1 0 0 -1 26 160)" fill="#303136"/>
<rect width="133" height="1" transform="matrix(1 0 0 -1 26 173)" fill="#303136"/>
<rect width="133" height="1" transform="matrix(1 0 0 -1 26 186)" fill="#303136"/>
<path d="M0 4C0 1.79086 1.79086 0 4 0H395C397.209 0 399 1.79086 399 4V22H0V4Z" fill="#131418"/>
<circle cx="18" cy="11" r="2" fill="#292C32"/>
<circle cx="28" cy="11" r="2" fill="#292C32"/>
<circle cx="38" cy="11" r="2" fill="#292C32"/>
<path d="M89 113C89 110.791 90.7909 109 93 109H484C486.209 109 488 110.791 488 113V340C488 342.209 486.209 344 484 344H93C90.7909 344 89 342.209 89 340V113Z" fill="#1C1D22"/>
<path d="M89 113C89 110.791 90.7909 109 93 109H484C486.209 109 488 110.791 488 113V131H89V113Z" fill="#131418"/>
<circle cx="107" cy="120" r="2" fill="#292C32"/>
<circle cx="117" cy="120" r="2" fill="#292C32"/>
<circle cx="127" cy="120" r="2" fill="#292C32"/>
<path d="M111.56 208L117.46 193H115.42L109.54 208H111.56ZM117.81 208L123.71 193H121.67L115.79 208H117.81ZM128.294 208V193H126.034V208H128.294ZM133.656 198H131.436V208H133.656V201.7C133.656 200.14 134.616 199.44 135.876 199.44C137.136 199.44 137.876 200.2 137.876 201.84V208H140.096V201.32C140.096 198.94 138.876 197.78 136.876 197.78C135.216 197.78 134.096 198.72 133.656 200.14V198ZM148.981 205.9C148.401 206.3 147.741 206.52 147.161 206.52C146.341 206.52 145.781 206.2 145.781 204.72V199.72H149.121V198H145.781V195.32L141.601 199.64V199.72H143.561V204.96C143.561 207.52 144.641 208.26 146.741 208.26C147.481 208.26 148.481 207.98 148.981 207.7V205.9ZM155.252 208.26C156.692 208.26 158.212 207.86 159.232 206.92V204.98C158.192 205.98 157.112 206.54 155.672 206.54C153.832 206.54 152.532 205.38 152.452 203.12H159.712C159.752 199.7 157.712 197.78 155.072 197.78C152.412 197.78 150.112 199.74 150.112 203.04C150.112 206.28 152.392 208.26 155.252 208.26ZM155.012 199.4C156.392 199.4 157.232 200.2 157.352 201.78H152.532C152.732 200.34 153.432 199.4 155.012 199.4ZM164.105 198H161.885V208H164.105V202.16C164.105 200.36 165.485 199.94 166.785 199.94C167.165 199.94 167.505 200 167.805 200.1V197.94C167.605 197.9 167.365 197.88 167.145 197.88C165.865 197.88 164.525 198.86 164.105 200.58V198ZM172.68 196.34C172.68 194.86 173.46 194.4 174.48 194.4C175.02 194.4 175.56 194.5 176.06 194.64V192.9C175.46 192.74 174.78 192.66 174.2 192.66C172.12 192.66 170.46 193.74 170.46 196.46V198H168.52V199.72H170.46V208H172.68V199.72H175.84V198H172.68V196.34ZM182.678 201.12C182.378 201.52 181.738 201.82 179.938 202.18C177.818 202.64 176.378 203.54 176.378 205.28C176.378 206.96 177.738 208.24 179.618 208.24C181.478 208.24 182.358 207.06 182.698 205.62V208H184.898V201.1C184.898 198.48 183.118 197.78 180.998 197.78C179.378 197.78 178.138 198.34 177.238 199.02V201.04C178.218 200.02 179.458 199.44 180.738 199.44C181.758 199.44 182.678 199.8 182.678 200.8V201.12ZM182.698 203.84C182.698 205.82 181.578 206.76 180.418 206.76C179.298 206.76 178.598 206.1 178.598 205.08C178.598 204.18 179.238 203.76 180.298 203.4L182.698 202.58V203.84ZM187.007 203.02C187.007 206.14 189.287 208.26 192.347 208.26C193.347 208.26 194.187 208.06 194.787 207.74V205.92C194.147 206.28 193.387 206.54 192.527 206.54C190.787 206.54 189.367 205.38 189.367 203.02C189.367 200.66 190.787 199.5 192.527 199.5C193.387 199.5 194.147 199.76 194.787 200.12V198.3C194.187 197.98 193.347 197.78 192.347 197.78C189.287 197.78 187.007 199.9 187.007 203.02ZM201.287 208.26C202.727 208.26 204.247 207.86 205.267 206.92V204.98C204.227 205.98 203.147 206.54 201.707 206.54C199.867 206.54 198.567 205.38 198.487 203.12H205.747C205.787 199.7 203.747 197.78 201.107 197.78C198.447 197.78 196.147 199.74 196.147 203.04C196.147 206.28 198.427 208.26 201.287 208.26ZM201.047 199.4C202.427 199.4 203.267 200.2 203.387 201.78H198.567C198.767 200.34 199.467 199.4 201.047 199.4ZM214.46 200.62C214.18 198.7 212.8 197.78 210.94 197.78C209.08 197.78 207.46 198.86 207.46 200.58C207.46 202.14 208.52 203.14 210.16 203.66L211.02 203.92C212.04 204.24 212.82 204.58 212.82 205.44C212.82 206.2 212.08 206.64 211.18 206.64C210.02 206.64 209.34 206.04 209.16 204.84H207.16C207.32 207.02 208.92 208.26 211.18 208.26C213.34 208.26 214.88 207.06 214.88 205.14C214.88 203.44 213.42 202.58 211.84 202.1L210.96 201.84C210.06 201.56 209.5 201.14 209.5 200.48C209.5 199.72 210.18 199.36 210.88 199.36C211.7 199.36 212.28 199.78 212.5 200.62H214.46ZM221.108 203.02C221.108 206.14 223.388 208.26 226.448 208.26C227.448 208.26 228.288 208.06 228.888 207.74V205.92C228.248 206.28 227.488 206.54 226.628 206.54C224.888 206.54 223.468 205.38 223.468 203.02C223.468 200.66 224.888 199.5 226.628 199.5C227.488 199.5 228.248 199.76 228.888 200.12V198.3C228.288 197.98 227.448 197.78 226.448 197.78C223.388 197.78 221.108 199.9 221.108 203.02ZM230.229 203.02C230.229 205.9 232.309 208.26 235.549 208.26C238.809 208.26 240.889 205.9 240.889 203.02C240.889 200.14 238.809 197.78 235.549 197.78C232.309 197.78 230.229 200.14 230.229 203.02ZM235.549 199.5C237.309 199.5 238.549 200.88 238.549 203.02C238.549 205.16 237.309 206.54 235.549 206.54C233.809 206.54 232.549 205.16 232.549 203.02C232.549 200.88 233.809 199.5 235.549 199.5ZM251.536 200.24C251.216 198.6 250.096 197.78 248.496 197.78C246.876 197.78 245.756 198.72 245.316 200.14V198H243.096V208H245.316V201.7C245.316 200.14 246.276 199.44 247.476 199.44C248.676 199.44 249.436 200.2 249.436 201.84V208H251.656V201.7C251.656 200.16 252.616 199.44 253.816 199.44C255.016 199.44 255.756 200.2 255.756 201.84V208H257.976V201.32C257.976 198.94 256.756 197.78 254.816 197.78C253.216 197.78 251.976 198.76 251.536 200.24ZM271.779 208H273.999V198H271.779V204.32C271.779 205.88 270.819 206.6 269.559 206.6C268.359 206.6 267.599 205.82 267.599 204.18V198H265.379V204.7C265.379 207.08 266.619 208.24 268.559 208.24C270.219 208.24 271.339 207.32 271.779 205.88V208ZM285.325 200.24C285.005 198.6 283.885 197.78 282.285 197.78C280.665 197.78 279.545 198.72 279.105 200.14V198H276.885V208H279.105V201.7C279.105 200.14 280.065 199.44 281.265 199.44C282.465 199.44 283.225 200.2 283.225 201.84V208H285.445V201.7C285.445 200.16 286.405 199.44 287.605 199.44C288.805 199.44 289.545 200.2 289.545 201.84V208H291.765V201.32C291.765 198.94 290.545 197.78 288.605 197.78C287.005 197.78 285.765 198.76 285.325 200.24ZM300.042 201.12C299.742 201.52 299.102 201.82 297.302 202.18C295.182 202.64 293.742 203.54 293.742 205.28C293.742 206.96 295.102 208.24 296.982 208.24C298.842 208.24 299.722 207.06 300.062 205.62V208H302.262V201.1C302.262 198.48 300.482 197.78 298.362 197.78C296.742 197.78 295.502 198.34 294.602 199.02V201.04C295.582 200.02 296.822 199.44 298.102 199.44C299.122 199.44 300.042 199.8 300.042 200.8V201.12ZM300.062 203.84C300.062 205.82 298.942 206.76 297.782 206.76C296.662 206.76 295.962 206.1 295.962 205.08C295.962 204.18 296.602 203.76 297.662 203.4L300.062 202.58V203.84ZM311.996 205.94C312.456 207.18 313.716 208.26 315.376 208.26C317.896 208.26 319.736 206.04 319.736 203.02C319.736 200 317.896 197.78 315.376 197.78C313.716 197.78 312.456 198.86 311.996 200.1V193H309.776V208H311.996V205.94ZM317.336 203.02C317.336 205.16 316.216 206.6 314.416 206.6C313.156 206.6 311.996 205.74 311.996 204.48V201.56C311.996 200.3 313.156 199.44 314.416 199.44C316.216 199.44 317.336 200.88 317.336 203.02ZM321.283 203.02C321.283 205.9 323.363 208.26 326.603 208.26C329.863 208.26 331.943 205.9 331.943 203.02C331.943 200.14 329.863 197.78 326.603 197.78C323.363 197.78 321.283 200.14 321.283 203.02ZM326.603 199.5C328.363 199.5 329.603 200.88 329.603 203.02C329.603 205.16 328.363 206.54 326.603 206.54C324.863 206.54 323.603 205.16 323.603 203.02C323.603 200.88 324.863 199.5 326.603 199.5ZM339.631 201.12C339.331 201.52 338.691 201.82 336.891 202.18C334.771 202.64 333.331 203.54 333.331 205.28C333.331 206.96 334.691 208.24 336.571 208.24C338.431 208.24 339.311 207.06 339.651 205.62V208H341.851V201.1C341.851 198.48 340.071 197.78 337.951 197.78C336.331 197.78 335.091 198.34 334.191 199.02V201.04C335.171 200.02 336.411 199.44 337.691 199.44C338.711 199.44 339.631 199.8 339.631 200.8V201.12ZM339.651 203.84C339.651 205.82 338.531 206.76 337.371 206.76C336.251 206.76 335.551 206.1 335.551 205.08C335.551 204.18 336.191 203.76 337.251 203.4L339.651 202.58V203.84ZM114.92 234.26C116.36 234.26 117.88 233.86 118.9 232.92V230.98C117.86 231.98 116.78 232.54 115.34 232.54C113.5 232.54 112.2 231.38 112.12 229.12H119.38C119.42 225.7 117.38 223.78 114.74 223.78C112.08 223.78 109.78 225.74 109.78 229.04C109.78 232.28 112.06 234.26 114.92 234.26ZM114.68 225.4C116.06 225.4 116.9 226.2 117.02 227.78H112.2C112.4 226.34 113.1 225.4 114.68 225.4ZM122.08 234L124.92 230.38L127.66 234H130.24L126.22 228.7L129.92 224H127.74L125.16 227.3L122.66 224H120.08L123.84 228.96L119.9 234H122.08ZM133.93 231.94C134.39 233.18 135.65 234.26 137.31 234.26C139.83 234.26 141.67 232.04 141.67 229.02C141.67 226 139.83 223.78 137.31 223.78C135.65 223.78 134.39 224.86 133.93 226.1V224H131.71V238.08H133.93V231.94ZM139.27 229.02C139.27 231.16 138.15 232.6 136.35 232.6C135.09 232.6 133.93 231.74 133.93 230.48V227.56C133.93 226.3 135.09 225.44 136.35 225.44C138.15 225.44 139.27 226.88 139.27 229.02ZM148.377 234.26C149.817 234.26 151.337 233.86 152.357 232.92V230.98C151.317 231.98 150.237 232.54 148.797 232.54C146.957 232.54 145.657 231.38 145.577 229.12H152.837C152.877 225.7 150.837 223.78 148.197 223.78C145.537 223.78 143.237 225.74 143.237 229.04C143.237 232.28 145.517 234.26 148.377 234.26ZM148.137 225.4C149.517 225.4 150.357 226.2 150.477 227.78H145.657C145.857 226.34 146.557 225.4 148.137 225.4ZM157.23 224H155.01V234H157.23V228.16C157.23 226.36 158.61 225.94 159.91 225.94C160.29 225.94 160.63 226 160.93 226.1V223.94C160.73 223.9 160.49 223.88 160.27 223.88C158.99 223.88 157.65 224.86 157.23 226.58V224ZM163.805 221.46C164.605 221.46 165.205 220.88 165.205 220.06C165.205 219.26 164.605 218.66 163.805 218.66C162.985 218.66 162.405 219.26 162.405 220.06C162.405 220.88 162.985 221.46 163.805 221.46ZM164.945 234V224H162.725V234H164.945ZM172.303 234.26C173.743 234.26 175.263 233.86 176.283 232.92V230.98C175.243 231.98 174.163 232.54 172.723 232.54C170.883 232.54 169.583 231.38 169.503 229.12H176.763C176.803 225.7 174.763 223.78 172.123 223.78C169.463 223.78 167.163 225.74 167.163 229.04C167.163 232.28 169.443 234.26 172.303 234.26ZM172.063 225.4C173.443 225.4 174.283 226.2 174.403 227.78H169.583C169.783 226.34 170.483 225.4 172.063 225.4ZM181.156 224H178.936V234H181.156V227.7C181.156 226.14 182.116 225.44 183.376 225.44C184.636 225.44 185.376 226.2 185.376 227.84V234H187.596V227.32C187.596 224.94 186.376 223.78 184.376 223.78C182.716 223.78 181.596 224.72 181.156 226.14V224ZM189.721 229.02C189.721 232.14 192.001 234.26 195.061 234.26C196.061 234.26 196.901 234.06 197.501 233.74V231.92C196.861 232.28 196.101 232.54 195.241 232.54C193.501 232.54 192.081 231.38 192.081 229.02C192.081 226.66 193.501 225.5 195.241 225.5C196.101 225.5 196.861 225.76 197.501 226.12V224.3C196.901 223.98 196.061 223.78 195.061 223.78C192.001 223.78 189.721 225.9 189.721 229.02ZM200.758 221.46C201.558 221.46 202.158 220.88 202.158 220.06C202.158 219.26 201.558 218.66 200.758 218.66C199.938 218.66 199.358 219.26 199.358 220.06C199.358 220.88 199.938 221.46 200.758 221.46ZM201.898 234V224H199.678V234H201.898ZM210.276 227.12C209.976 227.52 209.336 227.82 207.536 228.18C205.416 228.64 203.976 229.54 203.976 231.28C203.976 232.96 205.336 234.24 207.216 234.24C209.076 234.24 209.956 233.06 210.296 231.62V234H212.496V227.1C212.496 224.48 210.716 223.78 208.596 223.78C206.976 223.78 205.736 224.34 204.836 225.02V227.04C205.816 226.02 207.056 225.44 208.336 225.44C209.356 225.44 210.276 225.8 210.276 226.8V227.12ZM210.296 229.84C210.296 231.82 209.176 232.76 208.016 232.76C206.896 232.76 206.196 232.1 206.196 231.08C206.196 230.18 206.836 229.76 207.896 229.4L210.296 228.58V229.84ZM222.23 231.94C222.69 233.18 223.95 234.26 225.61 234.26C228.13 234.26 229.97 232.04 229.97 229.02C229.97 226 228.13 223.78 225.61 223.78C223.95 223.78 222.69 224.86 222.23 226.1V224H220.01V238.08H222.23V231.94ZM227.57 229.02C227.57 231.16 226.45 232.6 224.65 232.6C223.39 232.6 222.23 231.74 222.23 230.48V227.56C222.23 226.3 223.39 225.44 224.65 225.44C226.45 225.44 227.57 226.88 227.57 229.02ZM237.698 227.12C237.398 227.52 236.758 227.82 234.958 228.18C232.838 228.64 231.398 229.54 231.398 231.28C231.398 232.96 232.758 234.24 234.638 234.24C236.498 234.24 237.378 233.06 237.718 231.62V234H239.918V227.1C239.918 224.48 238.138 223.78 236.018 223.78C234.398 223.78 233.158 224.34 232.258 225.02V227.04C233.238 226.02 234.478 225.44 235.758 225.44C236.778 225.44 237.698 225.8 237.698 226.8V227.12ZM237.718 229.84C237.718 231.82 236.598 232.76 235.438 232.76C234.318 232.76 233.618 232.1 233.618 231.08C233.618 230.18 234.258 229.76 235.318 229.4L237.718 228.58V229.84ZM244.906 224H242.686V234H244.906V228.16C244.906 226.36 246.286 225.94 247.586 225.94C247.966 225.94 248.306 226 248.606 226.1V223.94C248.406 223.9 248.166 223.88 247.946 223.88C246.666 223.88 245.326 224.86 244.906 226.58V224ZM255.608 227.12C255.308 227.52 254.668 227.82 252.868 228.18C250.748 228.64 249.308 229.54 249.308 231.28C249.308 232.96 250.668 234.24 252.548 234.24C254.408 234.24 255.288 233.06 255.628 231.62V234H257.828V227.1C257.828 224.48 256.048 223.78 253.928 223.78C252.308 223.78 251.068 224.34 250.168 225.02V227.04C251.148 226.02 252.388 225.44 253.668 225.44C254.688 225.44 255.608 225.8 255.608 226.8V227.12ZM255.628 229.84C255.628 231.82 254.508 232.76 253.348 232.76C252.228 232.76 251.528 232.1 251.528 231.08C251.528 230.18 252.168 229.76 253.228 229.4L255.628 228.58V229.84ZM264.662 229.02C264.662 231.9 266.742 234.26 269.982 234.26C273.242 234.26 275.322 231.9 275.322 229.02C275.322 226.14 273.242 223.78 269.982 223.78C266.742 223.78 264.662 226.14 264.662 229.02ZM269.982 225.5C271.742 225.5 272.982 226.88 272.982 229.02C272.982 231.16 271.742 232.54 269.982 232.54C268.242 232.54 266.982 231.16 266.982 229.02C266.982 226.88 268.242 225.5 269.982 225.5ZM284.07 226.62C283.79 224.7 282.41 223.78 280.55 223.78C278.69 223.78 277.07 224.86 277.07 226.58C277.07 228.14 278.13 229.14 279.77 229.66L280.63 229.92C281.65 230.24 282.43 230.58 282.43 231.44C282.43 232.2 281.69 232.64 280.79 232.64C279.63 232.64 278.95 232.04 278.77 230.84H276.77C276.93 233.02 278.53 234.26 280.79 234.26C282.95 234.26 284.49 233.06 284.49 231.14C284.49 229.44 283.03 228.58 281.45 228.1L280.57 227.84C279.67 227.56 279.11 227.14 279.11 226.48C279.11 225.72 279.79 225.36 280.49 225.36C281.31 225.36 281.89 225.78 282.11 226.62H284.07ZM297.658 234H299.878V224H297.658V230.32C297.658 231.88 296.698 232.6 295.438 232.6C294.238 232.6 293.478 231.82 293.478 230.18V224H291.257V230.7C291.257 233.08 292.498 234.24 294.438 234.24C296.098 234.24 297.218 233.32 297.658 231.88V234ZM309.304 226.62C309.024 224.7 307.644 223.78 305.784 223.78C303.924 223.78 302.304 224.86 302.304 226.58C302.304 228.14 303.364 229.14 305.004 229.66L305.864 229.92C306.884 230.24 307.664 230.58 307.664 231.44C307.664 232.2 306.924 232.64 306.024 232.64C304.864 232.64 304.184 232.04 304.004 230.84H302.004C302.164 233.02 303.764 234.26 306.024 234.26C308.184 234.26 309.724 233.06 309.724 231.14C309.724 229.44 308.264 228.58 306.684 228.1L305.804 227.84C304.904 227.56 304.344 227.14 304.344 226.48C304.344 225.72 305.024 225.36 305.724 225.36C306.544 225.36 307.124 225.78 307.344 226.62H309.304ZM318.146 234H320.366V224H318.146V230.32C318.146 231.88 317.186 232.6 315.926 232.6C314.726 232.6 313.966 231.82 313.966 230.18V224H311.746V230.7C311.746 233.08 312.986 234.24 314.926 234.24C316.586 234.24 317.706 233.32 318.146 231.88V234ZM328.753 227.12C328.453 227.52 327.813 227.82 326.013 228.18C323.893 228.64 322.453 229.54 322.453 231.28C322.453 232.96 323.813 234.24 325.693 234.24C327.553 234.24 328.433 233.06 328.773 231.62V234H330.973V227.1C330.973 224.48 329.193 223.78 327.073 223.78C325.453 223.78 324.213 224.34 323.313 225.02V227.04C324.293 226.02 325.533 225.44 326.812 225.44C327.833 225.44 328.753 225.8 328.753 226.8V227.12ZM328.773 229.84C328.773 231.82 327.653 232.76 326.493 232.76C325.373 232.76 324.673 232.1 324.673 231.08C324.673 230.18 325.313 229.76 326.373 229.4L328.773 228.58V229.84ZM335.961 224H333.741V234H335.961V228.16C335.961 226.36 337.341 225.94 338.641 225.94C339.021 225.94 339.361 226 339.661 226.1V223.94C339.461 223.9 339.221 223.88 339.001 223.88C337.721 223.88 336.381 224.86 335.961 226.58V224ZM342.536 221.46C343.336 221.46 343.936 220.88 343.936 220.06C343.936 219.26 343.336 218.66 342.536 218.66C341.716 218.66 341.136 219.26 341.136 220.06C341.136 220.88 341.716 221.46 342.536 221.46ZM343.676 234V224H341.456V234H343.676ZM345.873 229.02C345.873 231.9 347.953 234.26 351.193 234.26C354.453 234.26 356.533 231.9 356.533 229.02C356.533 226.14 354.453 223.78 351.193 223.78C347.953 223.78 345.873 226.14 345.873 229.02ZM351.193 225.5C352.953 225.5 354.193 226.88 354.193 229.02C354.193 231.16 352.953 232.54 351.193 232.54C349.453 232.54 348.193 231.16 348.193 229.02C348.193 226.88 349.453 225.5 351.193 225.5ZM365.281 226.62C365.001 224.7 363.621 223.78 361.761 223.78C359.901 223.78 358.281 224.86 358.281 226.58C358.281 228.14 359.341 229.14 360.981 229.66L361.841 229.92C362.861 230.24 363.641 230.58 363.641 231.44C363.641 232.2 362.901 232.64 362.001 232.64C360.841 232.64 360.161 232.04 359.981 230.84H357.981C358.141 233.02 359.741 234.26 362.001 234.26C364.161 234.26 365.701 233.06 365.701 231.14C365.701 229.44 364.241 228.58 362.661 228.1L361.781 227.84C360.881 227.56 360.321 227.14 360.321 226.48C360.321 225.72 361.001 225.36 361.701 225.36C362.521 225.36 363.101 225.78 363.321 226.62H365.281Z" fill="#303136"/>
<path d="M134.04 269V254H131.78V269H134.04ZM139.402 259H137.182V269H139.402V262.7C139.402 261.14 140.362 260.44 141.622 260.44C142.882 260.44 143.622 261.2 143.622 262.84V269H145.842V262.32C145.842 259.94 144.622 258.78 142.622 258.78C140.962 258.78 139.842 259.72 139.402 261.14V259ZM154.728 266.9C154.148 267.3 153.488 267.52 152.908 267.52C152.088 267.52 151.528 267.2 151.528 265.72V260.72H154.868V259H151.528V256.32L147.348 260.64V260.72H149.308V265.96C149.308 268.52 150.388 269.26 152.488 269.26C153.228 269.26 154.228 268.98 154.728 268.7V266.9ZM160.998 269.26C162.438 269.26 163.958 268.86 164.978 267.92V265.98C163.938 266.98 162.858 267.54 161.418 267.54C159.578 267.54 158.278 266.38 158.198 264.12H165.458C165.498 260.7 163.458 258.78 160.818 258.78C158.158 258.78 155.858 260.74 155.858 264.04C155.858 267.28 158.138 269.26 160.998 269.26ZM160.758 260.4C162.138 260.4 162.978 261.2 163.098 262.78H158.278C158.478 261.34 159.178 260.4 160.758 260.4ZM169.851 259H167.631V269H169.851V263.16C169.851 261.36 171.231 260.94 172.531 260.94C172.911 260.94 173.251 261 173.551 261.1V258.94C173.351 258.9 173.111 258.88 172.891 258.88C171.611 258.88 170.271 259.86 169.851 261.58V259ZM178.426 257.34C178.426 255.86 179.206 255.4 180.226 255.4C180.766 255.4 181.306 255.5 181.806 255.64V253.9C181.206 253.74 180.526 253.66 179.946 253.66C177.866 253.66 176.206 254.74 176.206 257.46V259H174.266V260.72H176.206V269H178.426V260.72H181.586V259H178.426V257.34ZM188.424 262.12C188.124 262.52 187.484 262.82 185.684 263.18C183.564 263.64 182.124 264.54 182.124 266.28C182.124 267.96 183.484 269.24 185.364 269.24C187.224 269.24 188.104 268.06 188.444 266.62V269H190.644V262.1C190.644 259.48 188.864 258.78 186.744 258.78C185.124 258.78 183.884 259.34 182.984 260.02V262.04C183.964 261.02 185.204 260.44 186.484 260.44C187.504 260.44 188.424 260.8 188.424 261.8V262.12ZM188.444 264.84C188.444 266.82 187.324 267.76 186.164 267.76C185.044 267.76 184.344 267.1 184.344 266.08C184.344 265.18 184.984 264.76 186.044 264.4L188.444 263.58V264.84ZM192.753 264.02C192.753 267.14 195.033 269.26 198.093 269.26C199.093 269.26 199.933 269.06 200.533 268.74V266.92C199.893 267.28 199.133 267.54 198.273 267.54C196.533 267.54 195.113 266.38 195.113 264.02C195.113 261.66 196.533 260.5 198.273 260.5C199.133 260.5 199.893 260.76 200.533 261.12V259.3C199.933 258.98 199.093 258.78 198.093 258.78C195.033 258.78 192.753 260.9 192.753 264.02ZM207.033 269.26C208.473 269.26 209.993 268.86 211.013 267.92V265.98C209.973 266.98 208.893 267.54 207.453 267.54C205.613 267.54 204.313 266.38 204.233 264.12H211.493C211.533 260.7 209.493 258.78 206.853 258.78C204.193 258.78 201.893 260.74 201.893 264.04C201.893 267.28 204.173 269.26 207.033 269.26ZM206.793 260.4C208.173 260.4 209.013 261.2 209.133 262.78H204.313C204.513 261.34 205.213 260.4 206.793 260.4ZM217.773 263.52C217.773 262.427 217.873 261.36 218.073 260.32C218.286 259.28 218.613 258.287 219.053 257.34C219.493 256.393 220.046 255.52 220.713 254.72H222.373C221.759 255.547 221.239 256.44 220.813 257.4C220.399 258.36 220.086 259.353 219.873 260.38C219.659 261.407 219.553 262.447 219.553 263.5C219.553 264.527 219.659 265.547 219.873 266.56C220.086 267.573 220.399 268.547 220.813 269.48C221.226 270.427 221.739 271.32 222.353 272.16H220.713C220.046 271.373 219.493 270.513 219.053 269.58C218.613 268.66 218.286 267.687 218.073 266.66C217.873 265.633 217.773 264.587 217.773 263.52ZM228.169 263.52C228.169 264.587 228.062 265.633 227.849 266.66C227.649 267.687 227.329 268.66 226.889 269.58C226.462 270.513 225.909 271.373 225.229 272.16H223.589C224.202 271.32 224.715 270.427 225.129 269.48C225.542 268.547 225.855 267.573 226.069 266.56C226.282 265.547 226.389 264.527 226.389 263.5C226.389 262.447 226.282 261.407 226.069 260.38C225.855 259.353 225.542 258.36 225.129 257.4C224.715 256.44 224.195 255.547 223.569 254.72H225.229C225.909 255.52 226.462 256.393 226.889 257.34C227.329 258.287 227.649 259.28 227.849 260.32C228.062 261.36 228.169 262.427 228.169 263.52ZM240.671 272.16C239.858 272.147 239.151 272.027 238.551 271.8C237.964 271.573 237.511 271.22 237.191 270.74C236.871 270.273 236.711 269.687 236.711 268.98V266.04C236.711 265.587 236.618 265.227 236.431 264.96C236.244 264.68 235.971 264.48 235.611 264.36C235.251 264.227 234.804 264.16 234.271 264.16V262.7C234.804 262.687 235.251 262.62 235.611 262.5C235.971 262.38 236.244 262.187 236.431 261.92C236.618 261.64 236.711 261.28 236.711 260.84V257.88C236.711 257.347 236.804 256.887 236.991 256.5C237.191 256.1 237.464 255.773 237.811 255.52C238.171 255.253 238.591 255.053 239.071 254.92C239.551 254.787 240.084 254.72 240.671 254.72V256.16C240.218 256.173 239.824 256.247 239.491 256.38C239.158 256.513 238.898 256.713 238.711 256.98C238.538 257.247 238.451 257.6 238.451 258.04V260.92C238.451 261.6 238.271 262.147 237.911 262.56C237.551 262.96 237.004 263.227 236.271 263.36V263.48C237.018 263.613 237.564 263.887 237.911 264.3C238.271 264.7 238.451 265.24 238.451 265.92V268.86C238.451 269.287 238.538 269.633 238.711 269.9C238.884 270.18 239.138 270.38 239.471 270.5C239.804 270.633 240.204 270.707 240.671 270.72V272.16ZM130.64 322.72C131.107 322.707 131.5 322.633 131.82 322.5C132.153 322.367 132.407 322.16 132.58 321.88C132.767 321.613 132.86 321.267 132.86 320.84V317.94C132.86 317.26 133.04 316.72 133.4 316.32C133.76 315.907 134.307 315.633 135.04 315.5V315.38C134.307 315.247 133.76 314.98 133.4 314.58C133.04 314.167 132.86 313.62 132.86 312.94V310.02C132.86 309.58 132.773 309.227 132.6 308.96C132.427 308.693 132.173 308.493 131.84 308.36C131.52 308.227 131.12 308.16 130.64 308.16V306.72C131.253 306.72 131.8 306.787 132.28 306.92C132.773 307.053 133.193 307.253 133.54 307.52C133.887 307.773 134.147 308.1 134.32 308.5C134.507 308.9 134.6 309.367 134.6 309.9V312.82C134.6 313.273 134.693 313.64 134.88 313.92C135.067 314.187 135.34 314.387 135.7 314.52C136.073 314.64 136.52 314.7 137.04 314.7V316.16C136.52 316.16 136.073 316.227 135.7 316.36C135.34 316.48 135.067 316.673 134.88 316.94C134.693 317.207 134.6 317.567 134.6 318.02V321C134.6 321.707 134.433 322.293 134.1 322.76C133.767 323.227 133.3 323.573 132.7 323.8C132.113 324.04 131.427 324.16 130.64 324.16V322.72Z" fill="#E3E7EE"/>
<path d="M453.672 247.624L442.032 242.488V240.808L453.672 235V237.808L445.656 241.528L453.672 244.816V247.624ZM519.001 244.816L527.017 241.528L519.001 237.808V235L530.641 240.808V242.488L519.001 247.624V244.816Z" fill="#C7A0F2"/>
<path d="M455.574 244.024C455.574 247.744 458.358 250.312 462.27 250.312C463.518 250.312 464.574 250.072 465.294 249.688V247.024C464.502 247.504 463.566 247.816 462.558 247.816C460.614 247.816 459.078 246.592 459.078 244.024C459.078 241.456 460.614 240.232 462.558 240.232C463.566 240.232 464.502 240.544 465.294 241.024V238.36C464.574 237.976 463.518 237.736 462.27 237.736C458.358 237.736 455.574 240.304 455.574 244.024ZM466.848 244.024C466.848 247.504 469.32 250.312 473.328 250.312C477.36 250.312 479.784 247.504 479.784 244.024C479.784 240.544 477.36 237.736 473.328 237.736C469.32 237.736 466.848 240.544 466.848 244.024ZM473.328 240.232C475.08 240.232 476.328 241.648 476.328 244.024C476.328 246.4 475.08 247.816 473.328 247.816C471.576 247.816 470.328 246.4 470.328 244.024C470.328 241.648 471.576 240.232 473.328 240.232ZM490.473 240.544C489.897 238.84 488.385 237.712 486.537 237.712C483.585 237.712 481.521 240.376 481.521 244C481.521 247.624 483.585 250.288 486.537 250.288C488.385 250.288 489.897 249.16 490.473 247.432V250H493.761V232H490.473V240.544ZM485.025 244C485.025 241.72 486.153 240.16 487.977 240.16C489.369 240.16 490.497 241.168 490.497 242.56V245.44C490.497 246.832 489.369 247.84 487.977 247.84C486.153 247.84 485.025 246.28 485.025 244ZM503.367 241.936C503.007 242.392 502.383 242.704 500.415 243.112C497.775 243.64 496.119 244.696 496.119 246.76C496.119 248.776 497.703 250.264 499.839 250.264C502.071 250.264 503.007 248.8 503.415 247.288V250H506.679V241.912C506.679 238.6 504.567 237.736 501.735 237.736C499.863 237.736 498.231 238.408 497.175 239.224V242.128C498.351 240.88 500.031 240.208 501.351 240.208C502.455 240.208 503.367 240.592 503.367 241.552V241.936ZM503.415 245.2C503.415 247.24 502.311 248.104 501.111 248.104C499.983 248.104 499.239 247.48 499.239 246.472C499.239 245.56 499.911 245.176 500.991 244.816L503.415 243.976V245.2ZM513.068 238H509.78V250H513.068V243.808C513.068 241.552 514.508 240.76 516.212 240.76C516.692 240.76 517.124 240.832 517.508 240.976V237.88C517.292 237.832 517.028 237.808 516.788 237.808C515.108 237.808 513.524 239.032 513.068 241.48V238Z" fill="#E3E7EE"/>
<path d="M53.14 162.18C57 162.18 58.6 160.12 58.6 157.6C58.6 155.06 57 153 53.14 153H48.66V168H51.44V162.18H53.14ZM51.44 155.5H53.12C54.74 155.5 55.7 156.16 55.7 157.6C55.7 159 54.74 159.68 53.12 159.68H51.44V155.5ZM63.0331 158H60.2931V168H63.0331V162.84C63.0331 160.96 64.2331 160.3 65.6531 160.3C66.0531 160.3 66.4131 160.36 66.7331 160.48V157.9C66.5531 157.86 66.3331 157.84 66.1331 157.84C64.7331 157.84 63.4131 158.86 63.0331 160.9V158ZM67.4461 163.02C67.4461 165.92 69.5061 168.26 72.8461 168.26C76.2061 168.26 78.2261 165.92 78.2261 163.02C78.2261 160.12 76.2061 157.78 72.8461 157.78C69.5061 157.78 67.4461 160.12 67.4461 163.02ZM72.8461 159.86C74.3061 159.86 75.3461 161.04 75.3461 163.02C75.3461 165 74.3061 166.18 72.8461 166.18C71.3861 166.18 70.3461 165 70.3461 163.02C70.3461 161.04 71.3861 159.86 72.8461 159.86ZM81.6336 155.92C82.5936 155.92 83.2736 155.24 83.2736 154.28C83.2736 153.34 82.5936 152.66 81.6336 152.66C80.6736 152.66 80.0136 153.34 80.0136 154.28C80.0136 155.24 80.6736 155.92 81.6336 155.92ZM80.2736 167.8C80.2736 168.98 79.9136 169.38 78.5536 170.04L79.6936 172.26C82.2736 171.1 83.0136 170.42 83.0136 168.04V158H80.2736V167.8ZM90.3642 168.26C91.7642 168.26 93.3642 167.88 94.2842 167V164.76C93.2442 165.74 92.1442 166.18 90.8442 166.18C89.1042 166.18 88.0642 165.12 87.9442 163.4H94.8442C94.9642 159.88 92.9642 157.78 90.1042 157.78C87.3642 157.78 85.0442 159.72 85.0442 163.04C85.0442 166.34 87.3642 168.26 90.3642 168.26ZM90.0842 159.72C91.2242 159.72 91.9442 160.46 92.0242 161.8H88.0042C88.2242 160.5 88.8242 159.72 90.0842 159.72ZM103.098 165.6C102.538 165.98 101.938 166.16 101.418 166.16C100.598 166.16 100.098 165.78 100.098 164.62V160.08H103.238V158H100.098V155.3L95.6375 160V160.08H97.3575V165.04C97.3575 167.52 98.6575 168.26 100.738 168.26C101.538 168.26 102.598 168 103.098 167.7V165.6ZM104.204 163.02C104.204 165.92 106.264 168.26 109.604 168.26C112.964 168.26 114.984 165.92 114.984 163.02C114.984 160.12 112.964 157.78 109.604 157.78C106.264 157.78 104.204 160.12 104.204 163.02ZM109.604 159.86C111.064 159.86 112.104 161.04 112.104 163.02C112.104 165 111.064 166.18 109.604 166.18C108.144 166.18 107.104 165 107.104 163.02C107.104 161.04 108.144 159.86 109.604 159.86Z" fill="#E3E7EE"/>
<path d="M116.491 162.52C116.491 161.427 116.591 160.36 116.791 159.32C117.005 158.28 117.331 157.287 117.771 156.34C118.211 155.393 118.765 154.52 119.431 153.72H121.871C121.271 154.547 120.765 155.44 120.351 156.4C119.938 157.36 119.625 158.353 119.411 159.38C119.198 160.407 119.091 161.447 119.091 162.5C119.091 163.527 119.198 164.553 119.411 165.58C119.625 166.593 119.931 167.567 120.331 168.5C120.745 169.447 121.251 170.333 121.851 171.16H119.431C118.765 170.373 118.211 169.513 117.771 168.58C117.331 167.66 117.005 166.687 116.791 165.66C116.591 164.633 116.491 163.587 116.491 162.52ZM128.449 162.52C128.449 163.587 128.342 164.633 128.129 165.66C127.929 166.687 127.609 167.66 127.169 168.58C126.742 169.513 126.189 170.373 125.509 171.16H123.089C123.689 170.333 124.189 169.447 124.589 168.5C125.002 167.567 125.315 166.593 125.529 165.58C125.742 164.553 125.849 163.527 125.849 162.5C125.849 161.447 125.742 160.407 125.529 159.38C125.315 158.353 125.002 157.36 124.589 156.4C124.189 155.44 123.682 154.547 123.069 153.72H125.509C126.189 154.52 126.742 155.393 127.169 156.34C127.609 157.287 127.929 158.28 128.129 159.32C128.342 160.36 128.449 161.427 128.449 162.52Z" fill="#C7A0F2"/>
</svg>
